<?xml version="1.0" standalone="no"?>
<!DOCTYPE svg PUBLIC "-//W3C//DTD SVG 20010904//EN"
 "http://www.w3.org/TR/2001/REC-SVG-20010904/DTD/svg10.dtd">
<svg version="1.0" xmlns="http://www.w3.org/2000/svg"
 width="747.000000pt" height="1280.000000pt" viewBox="0 0 747.000000 1280.000000"
 preserveAspectRatio="xMidYMid meet">
<metadata>
Created by potrace 1.15, written by Peter Selinger 2001-2017
</metadata>
<g transform="translate(0.000000,1280.000000) scale(0.100000,-0.100000)"
fill="#000000" stroke="none">
<path d="M4200 12789 c-221 -28 -353 -98 -409 -218 -25 -52 -23 -81 5 -81 10
0 60 23 111 50 155 83 213 95 443 94 153 0 254 -7 470 -32 234 -28 649 -53
585 -36 -11 3 -103 23 -205 45 -102 22 -246 53 -320 69 -616 134 -557 125
-680 109z"/>
<path d="M5571 12477 c-30 -7 -56 -17 -58 -22 -2 -6 28 -50 67 -98 173 -216
202 -270 208 -392 8 -144 -28 -237 -160 -413 l-69 -93 47 -20 c59 -26 95 -21
190 25 69 35 117 74 201 168 32 36 55 50 107 68 80 26 100 54 123 167 22 109
6 257 -37 349 -76 159 -255 262 -470 270 -53 2 -119 -2 -149 -9z"/>
<path d="M5105 12438 c-104 -26 -193 -55 -350 -115 -479 -183 -703 -214 -908
-123 -57 25 -107 66 -107 88 0 8 7 24 16 34 16 16 15 18 -1 24 -27 11 -55 -30
-55 -80 0 -73 87 -193 170 -236 56 -29 139 -40 213 -30 65 10 117 1 117 -18 0
-37 -113 -278 -196 -418 -30 -50 -54 -101 -54 -113 0 -12 11 -43 24 -69 40
-79 65 -168 81 -291 22 -165 38 -213 80 -250 42 -37 66 -38 155 -11 36 11 78
20 93 20 68 0 107 -47 130 -155 11 -53 10 -56 -18 -96 -17 -22 -42 -48 -56
-57 -26 -15 -28 -14 -59 22 -56 63 -195 129 -335 156 -66 14 -150 8 -241 -16
-90 -23 -402 -150 -664 -269 -225 -103 -514 -225 -531 -225 -5 0 -77 41 -159
91 -83 49 -216 124 -296 166 -135 70 -155 84 -302 217 -141 127 -166 155 -247
273 -95 139 -145 198 -176 206 -18 5 -43 -15 -51 -42 -2 -8 -26 15 -61 57 -60
74 -65 84 -44 79 20 -4 9 42 -24 100 -24 41 -36 53 -55 53 -31 0 -111 -41
-244 -125 -96 -60 -109 -66 -146 -61 -78 10 -86 -38 -18 -113 48 -54 153 -134
190 -145 12 -4 29 -15 38 -25 17 -18 16 -19 -23 -26 -23 -4 -38 -11 -35 -16 3
-5 38 -31 77 -57 109 -71 243 -206 413 -417 194 -241 209 -256 384 -397 80
-64 157 -131 171 -150 62 -79 75 -142 39 -188 -29 -37 -25 -54 27 -100 49 -41
193 -120 221 -120 8 0 64 16 124 35 61 20 183 52 271 71 254 56 354 43 405
-49 14 -27 17 -58 17 -182 -1 -130 -5 -170 -32 -295 -123 -568 -151 -742 -160
-1003 l-6 -179 -46 7 c-68 9 -519 100 -726 146 -363 81 -858 171 -1057 194
-183 20 -501 39 -531 31 -17 -4 -29 -15 -33 -31 -5 -21 -12 -25 -46 -25 -33 0
-39 3 -34 16 14 36 17 62 8 68 -19 11 -110 -46 -197 -124 -50 -45 -115 -100
-145 -122 -30 -22 -65 -53 -78 -69 l-23 -28 25 -108 c58 -246 92 -420 176
-898 122 -698 170 -923 270 -1267 62 -211 91 -337 93 -404 2 -50 1 -52 -73
-131 -155 -165 -183 -282 -90 -375 43 -43 64 -46 121 -17 l41 20 -46 49 c-25
27 -46 56 -46 65 0 9 33 65 74 125 41 60 77 118 81 129 3 11 49 48 103 83 116
76 118 77 99 47 -9 -13 -17 -37 -19 -54 -5 -49 38 -45 155 15 101 51 127 59
127 38 0 -6 -54 -117 -120 -245 -122 -239 -140 -291 -97 -277 12 4 54 28 92
54 168 113 181 100 91 -87 -30 -61 -72 -143 -95 -181 -23 -39 -41 -73 -41 -77
0 -3 59 76 132 177 72 101 177 247 234 324 57 78 108 153 115 166 9 22 5 37
-34 114 -50 100 -67 119 -98 111 -18 -5 -20 -2 -14 16 28 95 65 255 65 282 0
19 -4 45 -10 59 -14 39 -65 36 -99 -5 -39 -46 -57 -26 -87 101 -56 233 -67
465 -39 805 8 99 15 248 15 330 0 168 10 222 43 234 31 12 45 5 192 -93 228
-153 549 -301 910 -422 190 -63 293 -87 515 -119 184 -27 321 -33 485 -22 82
6 116 5 135 -5 35 -18 66 -87 106 -233 38 -140 97 -297 208 -557 127 -298 190
-413 380 -692 64 -94 96 -150 89 -153 -7 -3 -13 -18 -13 -34 0 -99 160 -336
281 -416 30 -20 51 -54 132 -221 376 -775 370 -763 688 -1268 125 -200 258
-414 295 -476 36 -62 79 -129 94 -148 15 -19 66 -93 114 -163 92 -137 100
-165 70 -217 -34 -57 12 -120 168 -228 163 -114 198 -152 198 -214 0 -21 -9
-54 -19 -74 -15 -28 -17 -42 -10 -67 5 -18 30 -106 55 -197 47 -171 93 -294
124 -332 l17 -22 13 39 c17 52 8 188 -24 338 -20 91 -25 143 -23 225 3 139 -8
163 -117 244 -226 171 -286 234 -269 284 7 21 33 37 133 83 69 32 132 60 140
63 13 5 15 -9 12 -97 -4 -119 4 -145 48 -145 30 0 76 31 185 125 81 69 122 97
129 86 10 -16 -11 -103 -49 -201 -42 -108 -54 -193 -35 -241 14 -32 82 -89
107 -89 18 0 17 58 -3 127 -21 72 -15 102 44 231 46 99 92 248 92 297 0 11 -7
31 -16 44 -27 38 -71 22 -213 -73 -70 -47 -142 -89 -160 -92 l-34 -7 6 37 c7
44 54 124 155 266 84 116 109 167 118 233 9 60 -1 97 -25 97 -24 0 -61 -43
-108 -128 -20 -37 -57 -98 -82 -137 -24 -38 -63 -105 -86 -147 l-42 -78 -20
43 c-12 23 -23 74 -27 114 -9 109 -42 201 -226 633 -219 513 -231 545 -351
897 -157 464 -237 645 -390 891 -74 120 -131 191 -179 228 -28 20 -43 25 -76
21 -40 -4 -40 -4 -92 68 -28 39 -62 96 -76 126 -24 53 -24 55 -11 170 39 343
53 1139 26 1429 -21 236 -62 437 -91 455 -6 3 -10 25 -10 48 0 23 -5 60 -10
81 -8 36 -6 43 21 74 40 45 49 72 49 140 0 67 -42 195 -87 269 -17 27 -96 137
-176 244 -79 108 -150 205 -156 217 -25 47 -11 71 100 163 115 95 216 194 234
229 10 19 15 46 12 64 -10 67 5 84 128 151 276 151 480 311 605 476 64 83 122
139 146 139 9 0 25 23 39 54 13 30 29 57 34 61 19 11 55 -17 186 -145 107
-105 159 -147 292 -234 252 -165 359 -261 460 -411 55 -81 74 -121 67 -138
-11 -29 -130 -101 -243 -146 -113 -46 -132 -61 -90 -71 19 -5 14 -11 -42 -47
-35 -22 -82 -46 -104 -53 -22 -7 -143 -61 -270 -120 -244 -114 -385 -168 -385
-146 0 6 9 52 20 102 11 49 20 118 20 154 0 36 6 76 13 90 18 37 80 49 212 43
128 -6 180 8 191 51 11 45 -3 74 -38 81 -60 13 -78 31 -78 79 0 42 -3 47 -82
121 -83 77 -168 135 -199 135 -9 0 -38 -17 -63 -39 -43 -35 -60 -41 -199 -72
-83 -18 -169 -42 -191 -54 -49 -24 -76 -72 -76 -133 0 -94 49 -129 162 -116
56 6 62 5 50 -8 -7 -9 -37 -28 -66 -42 -30 -15 -61 -38 -70 -51 -20 -30 -20
-30 94 -10 47 8 108 15 137 15 44 0 54 -4 65 -22 12 -23 29 -296 20 -330 -6
-23 -61 -38 -137 -38 -79 0 -106 -17 -98 -64 3 -20 -5 -73 -21 -135 -15 -57
-24 -111 -21 -122 4 -11 15 -67 25 -125 18 -99 41 -155 75 -184 11 -9 48 -7
172 9 220 30 224 31 280 98 171 203 282 281 624 436 90 41 223 103 294 137
164 78 304 135 469 191 136 45 229 97 263 145 31 43 46 110 44 197 -1 74 0 78
19 72 33 -10 24 17 -24 82 -62 80 -210 230 -413 416 -219 201 -264 250 -441
487 -300 402 -475 606 -607 709 -49 39 -93 71 -97 71 -4 0 -7 10 -5 22 4 42
-32 50 -198 44 -140 -5 -154 -4 -205 17 -108 45 -211 127 -334 267 -80 92 -83
97 -88 153 -3 40 -1 61 9 68 7 6 13 15 13 20 0 28 97 164 253 354 151 184 213
283 258 414 21 59 25 173 9 215 -5 14 -35 42 -67 63 -32 21 -62 41 -66 44 -4
3 -3 27 3 54 18 80 -22 159 -97 191 -37 16 -187 17 -248 2z m234 -2022 c-10
-8 -492 -196 -495 -193 -6 5 212 96 361 152 109 40 146 52 134 41z"/>
<path d="M3876 12393 c18 -76 72 -121 180 -149 54 -15 55 -15 227 37 321 95
317 94 278 97 -34 3 -93 -4 -281 -33 -52 -8 -113 -15 -136 -15 -51 0 -133 24
-206 61 -32 16 -60 29 -63 29 -3 0 -3 -12 1 -27z"/>
<path d="M1570 11906 c-73 -28 -145 -72 -148 -90 -2 -10 16 -62 41 -115 51
-109 87 -209 87 -244 0 -30 -34 -61 -85 -77 -59 -18 -85 -38 -85 -63 0 -47 12
-51 84 -32 108 29 136 4 156 -145 12 -90 29 -134 55 -144 58 -22 125 12 197
101 30 37 60 78 66 90 15 27 15 77 2 123 -5 19 -28 120 -51 225 -23 104 -47
202 -55 217 -8 15 -35 41 -62 59 -26 18 -63 47 -82 65 -42 40 -74 47 -120 30z"/>
<path d="M135 11412 c-36 -22 -98 -96 -120 -143 -16 -34 -15 -36 66 -269 44
-129 94 -282 110 -339 45 -158 86 -221 145 -221 23 0 23 3 26 102 2 84 6 103
19 106 29 5 66 -43 93 -125 33 -100 53 -121 96 -103 64 27 67 93 9 252 -61
170 -62 174 -55 201 6 26 20 33 114 57 97 25 69 135 -43 170 -77 24 -104 48
-144 129 -47 93 -106 150 -185 180 -69 26 -92 26 -131 3z"/>
<path d="M5133 8223 c-21 -8 -15 -20 22 -49 33 -25 42 -26 123 -25 89 2 132
17 132 46 0 8 -9 19 -19 25 -20 10 -235 13 -258 3z"/>
<path d="M5625 7374 c-115 -12 -345 -46 -382 -55 -86 -23 -77 -62 16 -74 71
-9 91 -15 91 -24 0 -5 -14 -12 -30 -16 -17 -4 -35 -15 -40 -25 -7 -12 -27 -20
-62 -25 -65 -9 -98 -28 -98 -59 0 -57 57 -71 323 -82 183 -7 326 5 379 32 29
15 31 19 29 69 -2 25 8 38 49 74 86 73 90 129 12 163 -46 21 -194 32 -287 22z"/>
<path d="M1600 4963 c-25 -23 -39 -54 -76 -173 -92 -294 -185 -622 -249 -880
-37 -146 -85 -319 -107 -385 -48 -146 -129 -304 -208 -410 -35 -46 -60 -89
-60 -103 0 -23 3 -24 38 -17 62 11 104 36 168 100 97 96 206 268 267 420 38
93 218 592 305 845 116 336 172 501 172 509 0 19 -176 121 -210 121 -5 0 -23
-12 -40 -27z"/>
<path d="M600 4539 c-52 -31 -80 -60 -80 -82 0 -10 16 -44 35 -75 79 -131 115
-305 115 -568 0 -310 -28 -504 -104 -709 -17 -47 96 94 128 159 74 152 100
275 100 471 -1 137 -4 165 -39 320 -37 164 -38 176 -36 338 l2 167 -43 0 c-26
0 -57 -8 -78 -21z"/>
<path d="M7102 1968 c-6 -18 -13 -64 -17 -103 -22 -264 -68 -452 -246 -1015
-118 -372 -186 -527 -273 -616 -44 -46 -59 -55 -82 -52 -26 3 -31 10 -48 63
-47 151 -51 159 -77 174 -89 50 -131 -76 -69 -207 38 -80 127 -176 186 -198
42 -16 47 -16 85 1 84 38 207 195 343 440 142 255 380 766 483 1035 64 169 63
290 -5 357 l-36 36 -20 -27 c-27 -36 -103 -213 -201 -469 -43 -114 -80 -205
-82 -203 -7 7 37 189 76 310 101 316 107 506 15 506 -17 0 -25 -8 -32 -32z"/>
</g>
</svg>
