<svg width="0" height="0" class="hidden">
  <symbol fill="none" xmlns="http://www.w3.org/2000/svg" viewBox="0 0 20 20" id="heart">
    <path d="M17.367 3.842a4.583 4.583 0 0 0-6.483 0L10 4.725l-.883-.883a4.584 4.584 0 0 0-6.483 6.483l.883.883L10 17.692l6.484-6.484.883-.883a4.584 4.584 0 0 0 0-6.483Z" stroke="#F6F6F6" stroke-width="1.5" stroke-linecap="round" stroke-linejoin="round"></path>
  </symbol>
  <symbol id="insta" viewBox="0 0 32 32">
<path d="M28.717 10.756c-0.016-1.074-0.215-2.14-0.596-3.145-0.667-1.716-2.024-3.073-3.743-3.737-0.994-0.373-2.044-0.573-3.108-0.596-1.368-0.061-1.801-0.078-5.273-0.078s-3.917 0-5.274 0.078c-1.062 0.023-2.112 0.223-3.106 0.596-1.719 0.664-3.078 2.021-3.743 3.737-0.374 0.992-0.576 2.041-0.596 3.101-0.061 1.367-0.080 1.8-0.080 5.265s0 3.909 0.080 5.265c0.021 1.062 0.222 2.109 0.596 3.104 0.667 1.714 2.024 3.071 3.744 3.735 0.989 0.386 2.040 0.605 3.106 0.639 1.369 0.061 1.803 0.080 5.274 0.080s3.916 0 5.274-0.080c1.062-0.021 2.113-0.221 3.108-0.595 1.719-0.666 3.076-2.022 3.743-3.737 0.374-0.994 0.574-2.041 0.596-3.104 0.061-1.365 0.080-1.798 0.080-5.265-0.003-3.466-0.003-3.906-0.082-5.264zM15.99 22.531c-3.631 0-6.572-2.936-6.572-6.561s2.941-6.561 6.572-6.561c3.628 0 6.572 2.936 6.572 6.561s-2.944 6.561-6.572 6.561zM22.823 10.696c-0.849 0-1.532-0.684-1.532-1.53s0.684-1.53 1.532-1.53c0.846 0 1.531 0.684 1.531 1.53s-0.685 1.53-1.531 1.53z"></path>
<path d="M15.992 19.976c2.211 0 4.004-1.793 4.004-4.004s-1.793-4.004-4.004-4.004c-2.211 0-4.004 1.793-4.004 4.004s1.793 4.004 4.004 4.004z"></path>
</symbol>
  <symbol fill="none" xmlns="http://www.w3.org/2000/svg" viewBox="0 0 48 48" id="inverted commas">
    <path d="M12.302 26.203c2.318-.919 4.178-.678 5.578.722 1.4 1.4 1.815 3.63 1.247 6.693-.438 2.275-1.4 4.025-2.888 5.25-1.444 1.182-3.128 1.772-5.053 1.772-2.625 0-4.44-1.006-5.447-3.019-1.006-2.056-1.203-4.812-.59-8.268.35-1.882.918-3.785 1.706-5.71.787-1.925 1.837-3.893 3.15-5.906 1.312-2.012 3.018-3.762 5.118-5.25A16.836 16.836 0 0 1 22.08 9.6l-.657 6.956c-2.143.437-4.046 1.553-5.709 3.347-1.662 1.75-2.8 3.85-3.412 6.3Zm19.753 0c2.318-.919 4.178-.678 5.578.722 1.4 1.4 1.815 3.63 1.247 6.693-.438 2.275-1.4 4.025-2.888 5.25-1.444 1.182-3.128 1.772-5.053 1.772-2.625 0-4.44-1.006-5.447-3.019-1.006-2.056-1.203-4.812-.59-8.268a29.18 29.18 0 0 1 1.706-5.71c.787-1.925 1.837-3.893 3.15-5.906 1.312-2.012 3.018-3.762 5.119-5.25A16.837 16.837 0 0 1 41.833 9.6l-.657 6.956c-2.143.437-4.046 1.553-5.709 3.347-1.662 1.75-2.8 3.85-3.412 6.3Z" fill="#F6F6F6"></path>
  </symbol>
  <symbol fill="none" xmlns="http://www.w3.org/2000/svg" viewBox="0 0 32 16" id="menu-burher">
    <path d="M28 10.333H4M28 5H4" stroke="#7E847F" stroke-width="2" stroke-linecap="round" stroke-linejoin="round"></path>
  </symbol>
  <symbol fill="none" xmlns="http://www.w3.org/2000/svg" viewBox="0 0 34 32" id="mini-dumbbell">
    <circle cx="16" cy="16" r="16" fill="#F6F6F6" fill-opacity=".1"></circle>
    <path d="M10.6 11.714H9.4c-.332 0-.6.287-.6.643v2.786h-.6c-.11 0-.2.096-.2.214v1.286c0 .118.09.214.2.214h.6v2.786c0 .356.268.643.6.643h1.2c.332 0 .6-.287.6-.643v-7.286c0-.356-.268-.643-.6-.643Zm13.2 3.429h-.6v-2.786c0-.356-.267-.643-.6-.643h-1.2c-.332 0-.6.287-.6.643v7.286c0 .356.267.643.6.643h1.2c.332 0 .6-.287.6-.643v-2.786h.6c.11 0 .2-.096.2-.214v-1.286c0-.118-.09-.214-.2-.214ZM19.4 10h-1.2c-.332 0-.6.287-.6.643v4.5h-3.2v-4.5c0-.356-.268-.643-.6-.643h-1.2c-.332 0-.6.287-.6.643v10.714c0 .356.268.643.6.643h1.2c.332 0 .6-.287.6-.643v-4.5h3.2v4.5c0 .356.267.643.6.643h1.2c.333 0 .6-.287.6-.643V10.643c0-.356-.267-.643-.6-.643Z" fill="#F6F6F6"></path>
  </symbol>
  <symbol fill="none" xmlns="http://www.w3.org/2000/svg" viewBox="0 0 34 32" id="run">
    <circle cx="16" cy="16" r="16" fill="#F6F6F6" fill-opacity=".1"></circle>
    <path d="M24.73 11.907a.77.77 0 0 0-1.067-.093l-2.1 1.723-.965-2.337a.72.72 0 0 0-.146-.226 2.03 2.03 0 0 0-1.012-1.011 2.12 2.12 0 0 0-.628-.164c-.047-.023-.09-.055-.142-.071l-3.695-1.006a.775.775 0 0 0-.586.078.732.732 0 0 0-.46.42l-1.391 3.495c-.15.38.042.809.432.958a.765.765 0 0 0 .98-.423l1.175-2.951 1.683.457c-.041.065-.086.125-.119.195l-2.157 4.568c-.031.067-.048.135-.07.205l-2.621 4.294-4.387 1.434a1.081 1.081 0 0 0-.235 1.531c.369.486 1.07.59 1.566.23l4.489-1.51a1.06 1.06 0 0 0 .313-.363c.056-.058.12-.105.164-.177l1.563-2.56 2.774 2.31-2.969 3.268a1.076 1.076 0 0 0 .096 1.543c.462.402 1.17.36 1.582-.093l3.704-4.078c.115-.125.184-.27.23-.422.028-.082.028-.168.035-.253 0-.044.016-.083.013-.123a1.063 1.063 0 0 0-.385-.796l-2.552-2.127c.184-.17.34-.375.453-.614l1.654-3.5.53 1.38a.69.69 0 0 0 .153.343c.08.093.181.155.29.198.011.006.024.007.038.01a.75.75 0 0 0 .21.05.736.736 0 0 0 .26-.027l.003-.002c.023-.005.047 0 .07-.01a.748.748 0 0 0 .298-.213l3.013-2.498c.32-.263.185-.729-.085-1.042ZM20.92 10.126c1.165 0 2.11-.923 2.11-2.063 0-1.14-.945-2.063-2.11-2.063-1.167 0-2.112.924-2.112 2.063 0 1.14.945 2.063 2.111 2.063Z" fill="#F6F6F6"></path>
  </symbol>
  <symbol fill="none" xmlns="http://www.w3.org/2000/svg" viewBox="0 0 16 16" id="trash">
    <path d="M10.667 4v-.533c0-.747 0-1.12-.146-1.406a1.333 1.333 0 0 0-.582-.582c-.286-.146-.659-.146-1.406-.146H7.467c-.747 0-1.12 0-1.406.146-.25.127-.455.331-.582.582-.146.286-.146.659-.146 1.406V4m1.334 3.667V11m2.666-3.333V11M2 4h12m-1.333 0v7.467c0 1.12 0 1.68-.218 2.108a2 2 0 0 1-.874.874c-.428.218-.988.218-2.108.218H6.533c-1.12 0-1.68 0-2.108-.218a2 2 0 0 1-.874-.874c-.218-.428-.218-.988-.218-2.108V4" stroke="#1B1B1B" stroke-width="1.3" stroke-linecap="round" stroke-linejoin="round"></path>
  </symbol>
<symbol id="youtobe" viewBox="0 0 32 32">
<path d="M24.24 6c-1.36-0.080-4.16-0.16-8.4-0.16h-0.56c-4.080 0-6.8 0.080-8.16 0.24-1.84 0.16-3.12 0.64-3.84 1.28-0.64 0.56-1.12 1.6-1.28 2.96-0.080 0.88-0.16 2.72-0.16 5.52v0.4c0 2.64 0.080 4.48 0.24 5.36 0.24 1.28 0.64 2.24 1.44 2.8 0.8 0.64 2.16 1.040 4.080 1.2 1.36 0.080 4.16 0.16 8.4 0.16h0.56c4.080 0 6.8-0.080 8.16-0.24 1.84-0.16 3.12-0.64 3.84-1.28 0.64-0.56 1.12-1.6 1.28-2.96 0.080-0.88 0.16-2.72 0.16-5.52v-0.4c0-2.64-0.080-4.48-0.24-5.36-0.24-1.28-0.64-2.24-1.44-2.8-0.8-0.64-2.16-1.040-4.080-1.2zM21.12 15.84l-8.8 5.28v-10.56l8.8 5.28z"></path>
</symbol>
<symbol id="facebook" viewBox="0 0 32 32">
<path d="M19.52 4.64c0.24 0 0.48 0 0.96 0v3.6c-0.24 0-0.72 0-1.2 0s-0.96 0-1.2 0.24c-0.24 0.24-0.24 0.48-0.24 1.040 0 0.48 0 0.8 0 1.28h2.64v3.040h-2.64v13.2h-4.080v-13.28h-2.16v-3.040h2.16v-1.040c0-1.76 0.24-3.040 0.72-3.6 0.72-1.040 2.16-1.52 4.32-1.52 0.24 0.080 0.48 0.080 0.72 0.080z"></path>
</symbol>
</svg>