<?xml version="1.0" standalone="no"?>
<!DOCTYPE svg PUBLIC "-//W3C//DTD SVG 20010904//EN"
 "http://www.w3.org/TR/2001/REC-SVG-20010904/DTD/svg10.dtd">
<svg version="1.0" xmlns="http://www.w3.org/2000/svg"
 width="1280.000000pt" height="1194.000000pt" viewBox="0 0 1280.000000 1194.000000"
 preserveAspectRatio="xMidYMid meet">
<metadata>
Created by potrace 1.15, written by Peter Selinger 2001-2017
</metadata>
<g transform="translate(0.000000,1194.000000) scale(0.100000,-0.100000)"
fill="#000000" stroke="none">
<path d="M3600 11930 c-484 -60 -920 -326 -1186 -725 -162 -244 -251 -498
-273 -785 -36 -446 -35 -545 4 -729 120 -572 567 -1018 1143 -1141 l101 -22
2853 -4 c1569 -2 2923 -5 3008 -6 177 -2 271 13 441 68 598 193 1016 757 1023
1379 1 181 -20 462 -45 594 -121 624 -588 1135 -1202 1312 -190 55 -259 63
-547 63 -287 1 -367 -7 -593 -55 -636 -138 -1210 -530 -1575 -1075 -133 -198
-259 -464 -323 -681 -13 -46 -26 -83 -29 -83 -3 0 -18 44 -35 98 -191 624
-623 1156 -1202 1480 -263 147 -570 250 -887 298 -120 18 -566 27 -676 14z
m375 -851 c288 -24 564 -117 790 -266 463 -305 738 -778 780 -1341 l7 -93
-969 3 -968 3 -80 27 c-130 45 -220 101 -316 197 -182 183 -244 362 -234 681
5 154 26 252 75 351 141 282 402 445 715 448 44 0 134 -4 200 -10z m5195 -20
c151 -39 292 -121 401 -235 154 -162 221 -316 240 -554 21 -279 -48 -479 -230
-661 -96 -96 -186 -152 -316 -197 l-80 -27 -968 -3 -969 -3 7 93 c29 394 170
740 420 1030 134 156 352 323 538 412 316 151 703 209 957 145z"/>
<path d="M0 6825 l0 -855 2775 0 2775 0 -2 853 -3 852 -2772 3 -2773 2 0 -855z"/>
<path d="M7257 7673 c-4 -3 -7 -388 -7 -855 l0 -848 2775 0 2775 0 0 855 0
855 -2768 0 c-1523 0 -2772 -3 -2775 -7z"/>
<path d="M857 5113 c-11 -11 -8 -3857 3 -3958 13 -114 24 -167 61 -281 61
-188 157 -342 309 -494 184 -185 379 -292 650 -356 70 -17 186 -18 1873 -21
l1797 -3 -2 2557 -3 2558 -2341 3 c-1287 1 -2344 -1 -2347 -5z"/>
<path d="M7257 5113 c-4 -3 -7 -1155 -7 -2560 l0 -2553 1798 3 c1981 3 1825
-2 2022 63 379 126 690 439 813 819 66 203 62 52 62 2245 l0 1985 -2341 3
c-1287 1 -2344 -1 -2347 -5z"/>
</g>
</svg>
