<svg width="0" height="0" class="hidden">
  <symbol fill="none" xmlns="http://www.w3.org/2000/svg" viewBox="0 0 20 20" id="heart">
    <path d="M17.367 3.842a4.583 4.583 0 0 0-6.483 0L10 4.725l-.883-.883a4.584 4.584 0 0 0-6.483 6.483l.883.883L10 17.692l6.484-6.484.883-.883a4.584 4.584 0 0 0 0-6.483Z" stroke="#F6F6F6" stroke-width="1.5" stroke-linecap="round" stroke-linejoin="round"></path>
  </symbol>
  <symbol fill="none" xmlns="http://www.w3.org/2000/svg" viewBox="0 0 44 44" id="insta">
    <rect x=".5" y=".5" width="43" height="43" rx="9.5" stroke="#7E847F" stroke-opacity=".2"></rect>
    <g opacity=".8" fill="#7E847F">
      <path d="M33.128 17.412a8.098 8.098 0 0 0-.522-2.752 5.729 5.729 0 0 0-3.275-3.27 8.23 8.23 0 0 0-2.719-.522c-1.196-.053-1.576-.068-4.613-.068-3.038 0-3.427 0-4.615.068a8.23 8.23 0 0 0-2.718.522 5.725 5.725 0 0 0-3.275 3.27 8.125 8.125 0 0 0-.521 2.713c-.054 1.196-.07 1.575-.07 4.607 0 3.033 0 3.42.07 4.607.018.93.194 1.846.52 2.716a5.729 5.729 0 0 0 3.277 3.269 8.2 8.2 0 0 0 2.718.558c1.198.054 1.577.07 4.615.07 3.037 0 3.427 0 4.615-.07a8.208 8.208 0 0 0 2.719-.52 5.736 5.736 0 0 0 3.275-3.27c.327-.869.502-1.785.521-2.715.054-1.195.07-1.574.07-4.608-.003-3.032-.003-3.417-.072-4.605ZM21.99 27.715a5.745 5.745 0 0 1-5.75-5.741 5.744 5.744 0 0 1 5.75-5.741c3.175 0 5.75 2.57 5.75 5.74a5.746 5.746 0 0 1-5.75 5.742Zm5.98-10.356a1.338 1.338 0 1 1 0-2.677 1.339 1.339 0 1 1 0 2.677Z"></path>
      <path d="M21.993 25.479a3.504 3.504 0 1 0 0-7.007 3.504 3.504 0 0 0 0 7.007Z"></path>
    </g>
  </symbol>
  <symbol fill="none" xmlns="http://www.w3.org/2000/svg" viewBox="0 0 48 48" id="inverted commas">
    <path d="M12.302 26.203c2.318-.919 4.178-.678 5.578.722 1.4 1.4 1.815 3.63 1.247 6.693-.438 2.275-1.4 4.025-2.888 5.25-1.444 1.182-3.128 1.772-5.053 1.772-2.625 0-4.44-1.006-5.447-3.019-1.006-2.056-1.203-4.812-.59-8.268.35-1.882.918-3.785 1.706-5.71.787-1.925 1.837-3.893 3.15-5.906 1.312-2.012 3.018-3.762 5.118-5.25A16.836 16.836 0 0 1 22.08 9.6l-.657 6.956c-2.143.437-4.046 1.553-5.709 3.347-1.662 1.75-2.8 3.85-3.412 6.3Zm19.753 0c2.318-.919 4.178-.678 5.578.722 1.4 1.4 1.815 3.63 1.247 6.693-.438 2.275-1.4 4.025-2.888 5.25-1.444 1.182-3.128 1.772-5.053 1.772-2.625 0-4.44-1.006-5.447-3.019-1.006-2.056-1.203-4.812-.59-8.268a29.18 29.18 0 0 1 1.706-5.71c.787-1.925 1.837-3.893 3.15-5.906 1.312-2.012 3.018-3.762 5.119-5.25A16.837 16.837 0 0 1 41.833 9.6l-.657 6.956c-2.143.437-4.046 1.553-5.709 3.347-1.662 1.75-2.8 3.85-3.412 6.3Z" fill="#F6F6F6"></path>
  </symbol>
  <symbol fill="none" xmlns="http://www.w3.org/2000/svg" viewBox="0 0 32 16" id="menu-burher">
    <path d="M28 10.333H4M28 5H4" stroke="#7E847F" stroke-width="2" stroke-linecap="round" stroke-linejoin="round"></path>
  </symbol>
  <symbol fill="none" xmlns="http://www.w3.org/2000/svg" viewBox="0 0 34 32" id="mini-dumbbell">
    <circle cx="16" cy="16" r="16" fill="#F6F6F6" fill-opacity=".1"></circle>
    <path d="M10.6 11.714H9.4c-.332 0-.6.287-.6.643v2.786h-.6c-.11 0-.2.096-.2.214v1.286c0 .118.09.214.2.214h.6v2.786c0 .356.268.643.6.643h1.2c.332 0 .6-.287.6-.643v-7.286c0-.356-.268-.643-.6-.643Zm13.2 3.429h-.6v-2.786c0-.356-.267-.643-.6-.643h-1.2c-.332 0-.6.287-.6.643v7.286c0 .356.267.643.6.643h1.2c.332 0 .6-.287.6-.643v-2.786h.6c.11 0 .2-.096.2-.214v-1.286c0-.118-.09-.214-.2-.214ZM19.4 10h-1.2c-.332 0-.6.287-.6.643v4.5h-3.2v-4.5c0-.356-.268-.643-.6-.643h-1.2c-.332 0-.6.287-.6.643v10.714c0 .356.268.643.6.643h1.2c.332 0 .6-.287.6-.643v-4.5h3.2v4.5c0 .356.267.643.6.643h1.2c.333 0 .6-.287.6-.643V10.643c0-.356-.267-.643-.6-.643Z" fill="#F6F6F6"></path>
  </symbol>
  <symbol fill="none" xmlns="http://www.w3.org/2000/svg" viewBox="0 0 34 32" id="run">
    <circle cx="16" cy="16" r="16" fill="#F6F6F6" fill-opacity=".1"></circle>
    <path d="M24.73 11.907a.77.77 0 0 0-1.067-.093l-2.1 1.723-.965-2.337a.72.72 0 0 0-.146-.226 2.03 2.03 0 0 0-1.012-1.011 2.12 2.12 0 0 0-.628-.164c-.047-.023-.09-.055-.142-.071l-3.695-1.006a.775.775 0 0 0-.586.078.732.732 0 0 0-.46.42l-1.391 3.495c-.15.38.042.809.432.958a.765.765 0 0 0 .98-.423l1.175-2.951 1.683.457c-.041.065-.086.125-.119.195l-2.157 4.568c-.031.067-.048.135-.07.205l-2.621 4.294-4.387 1.434a1.081 1.081 0 0 0-.235 1.531c.369.486 1.07.59 1.566.23l4.489-1.51a1.06 1.06 0 0 0 .313-.363c.056-.058.12-.105.164-.177l1.563-2.56 2.774 2.31-2.969 3.268a1.076 1.076 0 0 0 .096 1.543c.462.402 1.17.36 1.582-.093l3.704-4.078c.115-.125.184-.27.23-.422.028-.082.028-.168.035-.253 0-.044.016-.083.013-.123a1.063 1.063 0 0 0-.385-.796l-2.552-2.127c.184-.17.34-.375.453-.614l1.654-3.5.53 1.38a.69.69 0 0 0 .153.343c.08.093.181.155.29.198.011.006.024.007.038.01a.75.75 0 0 0 .21.05.736.736 0 0 0 .26-.027l.003-.002c.023-.005.047 0 .07-.01a.748.748 0 0 0 .298-.213l3.013-2.498c.32-.263.185-.729-.085-1.042ZM20.92 10.126c1.165 0 2.11-.923 2.11-2.063 0-1.14-.945-2.063-2.11-2.063-1.167 0-2.112.924-2.112 2.063 0 1.14.945 2.063 2.111 2.063Z" fill="#F6F6F6"></path>
  </symbol>
  <symbol fill="none" xmlns="http://www.w3.org/2000/svg" viewBox="0 0 16 16" id="trash">
    <path d="M10.667 4v-.533c0-.747 0-1.12-.146-1.406a1.333 1.333 0 0 0-.582-.582c-.286-.146-.659-.146-1.406-.146H7.467c-.747 0-1.12 0-1.406.146-.25.127-.455.331-.582.582-.146.286-.146.659-.146 1.406V4m1.334 3.667V11m2.666-3.333V11M2 4h12m-1.333 0v7.467c0 1.12 0 1.68-.218 2.108a2 2 0 0 1-.874.874c-.428.218-.988.218-2.108.218H6.533c-1.12 0-1.68 0-2.108-.218a2 2 0 0 1-.874-.874c-.218-.428-.218-.988-.218-2.108V4" stroke="#1B1B1B" stroke-width="1.3" stroke-linecap="round" stroke-linejoin="round"></path>
  </symbol>
  <symbol fill="none" xmlns="http://www.w3.org/2000/svg" viewBox="0 0 44 44" id="youtube">
    <rect x=".5" y=".5" width="43" height="43" rx="9.5" stroke="#7E847F" stroke-opacity=".2"></rect>
    <path fill-rule="evenodd" clip-rule="evenodd" d="M29.21 13.25c-1.19-.07-3.64-.14-7.35-.14h-.49c-3.57 0-5.95.07-7.14.21-1.61.14-2.73.56-3.36 1.12-.56.49-.98 1.4-1.12 2.59-.07.77-.14 2.38-.14 4.83v.35c0 2.31.07 3.92.21 4.69.21 1.12.56 1.96 1.26 2.45.7.56 1.89.91 3.57 1.05 1.19.07 3.64.14 7.35.14h.49c3.57 0 5.95-.07 7.14-.21 1.61-.14 2.73-.56 3.36-1.12.56-.49.98-1.4 1.12-2.59.07-.77.14-2.38.14-4.83v-.35c0-2.31-.07-3.92-.21-4.69-.21-1.12-.56-1.96-1.26-2.45-.7-.56-1.89-.91-3.57-1.05Zm-2.73 8.61-7.7 4.62v-9.24l7.7 4.62Z" fill="#7E847F" opacity=".8"></path>
  </symbol>
  <symbol fill="none" xmlns="http://www.w3.org/2000/svg" viewBox="0 0 44 44" id="facebook">
    <rect x=".5" y=".5" width="43" height="43" rx="9.5" stroke="#7E847F" stroke-opacity=".2"></rect>
    <path d="M25.08 12.06h.84v3.15h-1.05c-.42 0-.84 0-1.05.21-.21.21-.21.42-.21.91v1.12h2.31v2.66h-2.31v11.55h-3.57V20.04h-1.89v-2.66h1.89v-.91c0-1.54.21-2.66.63-3.15.63-.91 1.89-1.33 3.78-1.33.21.07.42.07.63.07Z" fill="#7E847F" opacity=".8"></path>
  </symbol>
</svg>